<svg id="SvgjsSvg1205" width="288" height="288" xmlns="http://www.w3.org/2000/svg" version="1.1" xmlns:xlink="http://www.w3.org/1999/xlink" xmlns:svgjs="http://svgjs.com/svgjs"><defs id="SvgjsDefs1206"></defs><g id="SvgjsG1207"><svg xmlns="http://www.w3.org/2000/svg" width="288" height="288" viewBox="0 0 213.795 234.623"><g transform="translate(-.602 -.364)" fill="#000000" class="color000 svgShape"><g transform="translate(60)" fill="#000000" class="color000 svgShape"><rect width="131.196" height="131.196" fill="#ffe86a" transform="rotate(11 10.912 133.038)" class="colorfeba91 svgShape"></rect><g transform="translate(29 42)" fill="#000000" class="color000 svgShape"><path fill="#2e186a" d="M.067,2.371A3,3,0,0,1,3.457.035L3.63.067l91.3,19.6a3,3,0,0,1-1.086,5.9l-.173-.032-91.3-19.6A3,3,0,0,1,.067,2.371Z" transform="translate(6.699 -2.401)" class="color2e186a svgShape"></path><path fill="#2e186a" d="M.067,2.371A3,3,0,0,1,3.456.035L3.63.067l88.1,18.9a3,3,0,0,1-1.085,5.9l-.173-.032-88.1-18.9A3,3,0,0,1,.067,2.371Z" data-name="Path" transform="translate(3.399 14.699)" class="color2e186a svgShape"></path><path fill="#2e186a" d="M.068,2.371A3,3,0,0,1,3.457.035l.173.032,67.5,14.5a3,3,0,0,1-1.087,5.9l-.173-.032-67.5-14.5A3,3,0,0,1,.068,2.371Z" data-name="Path" transform="translate(-2.301 32.199)" class="color2e186a svgShape"></path></g></g><g transform="translate(0 58)" fill="#000000" class="color000 svgShape"><rect width="131.2" height="131.2" fill="#f3cf0b" data-name="Rectangle" transform="rotate(-23.609 136.117 26.944)" class="colorfe7624 svgShape"></rect><g transform="translate(46 65)" fill="#000000" class="color000 svgShape"><path fill="#2e186a" d="M58.561.226A3,3,0,0,1,61,5.7l-.161.072-56.7,23.3A3,3,0,0,1,1.7,23.6l.161-.072Z" data-name="Path" transform="translate(-2.301 -3.001)" class="color2e186a svgShape"></path><path fill="#2e186a" d="M28.463.225A3,3,0,0,1,30.9,5.705l-.161.072-26.6,10.9A3,3,0,0,1,1.7,11.2l.161-.072Z" data-name="Path" transform="translate(9.199 29.899)" class="color2e186a svgShape"></path></g><path fill="#000000" d="M1.4,19.4,0,26.6,50.3,7.9l39.1,82,7.1,1.3L53.4,0Z" data-name="Path" transform="translate(69 .3)" class="colorfff svgShape"></path></g></g></svg></g></svg>